# xmcd
# 
# Track frame offsets:
#     150
#     19042
#     33200
#     47105
#     60480
#     75120
#     88615
#     103942
#     119170
#     132307
#     150372
#     164100
# 
# Disc length: 2476
# 
# Revision: 5
# Processed by: cddbd v1.5.2PL0 Copyright (c) Steve Scherf et al.
# Submitted via: fre:ac v1.0.17
# 
DISCID=9309aa0c
DTITLE=Yusuke Honma - 幽遊白書OST
DYEAR=1997
DGENRE=Big Band
TTITLE0=Smiling Bomb
TTITLE1=Yuusuke's Theme
TTITLE2=Time for Battle
TTITLE3=Hiei's Theme
TTITLE4=Kurama's Theme
TTITLE5=Kuwabara's Theme
TTITLE6=Koenma's Theme
TTITLE7=Botan's Theme
TTITLE8=Time Limit
TTITLE9=The Monster's Chorus
TTITLE10=Romantic
TTITLE11=Never-Ending Homework
EXTD=
EXTT0=
EXTT1=
EXTT2=
EXTT3=
EXTT4=
EXTT5=
EXTT6=
EXTT7=
EXTT8=
EXTT9=
EXTT10=
EXTT11=
PLAYORDER=
